<svg width="24" height="27" viewBox="0 0 24 27" fill="none" xmlns="http://www.w3.org/2000/svg">
<g clip-path="url(#clip0_23_188)">
<path d="M12.65 17.4763C12.79 17.0833 12.7 16.6356 12.42 16.3299L10.33 14.0807L10.36 14.048C12.1 11.9298 13.34 9.49506 14.07 6.91834H16.01C16.55 6.91834 17 6.42702 17 5.83743V5.81559C17 5.22601 16.55 4.73468 16.01 4.73468H10V3.64285C10 3.04235 9.55 2.55103 9 2.55103C8.45 2.55103 8 3.04235 8 3.64285V4.73468H1.99C1.45 4.73468 1 5.22601 1 5.81559C1 6.4161 1.45 6.89651 1.99 6.89651H12.17C11.5 9.01465 10.44 11.0127 9 12.7596C8.19 11.7879 7.51 10.7288 6.94 9.61516C6.78 9.29853 6.49 9.102 6.16 9.102C5.47 9.102 5.03 9.92087 5.37 10.576C6 11.8097 6.77 12.9889 7.67 14.0807L3.3 18.7865C2.9 19.2123 2.9 19.9111 3.3 20.3369C3.69 20.7627 4.32 20.7627 4.72 20.3369L9 15.653L11.02 17.8585C11.53 18.4153 12.4 18.2079 12.65 17.4763V17.4763ZM17.5 11.2857C16.9 11.2857 16.36 11.6896 16.15 12.312L12.48 23.0119C12.24 23.6779 12.7 24.3876 13.35 24.3876C13.74 24.3876 14.09 24.1256 14.23 23.7216L15.12 21.1121H19.87L20.77 23.7216C20.91 24.1147 21.26 24.3876 21.65 24.3876C22.3 24.3876 22.76 23.6779 22.53 23.0119L18.86 12.312C18.64 11.6896 18.1 11.2857 17.5 11.2857V11.2857ZM15.88 18.9285L17.5 14.2008L19.12 18.9285H15.88V18.9285Z" fill="url(#paint0_linear_23_188)"/>
</g>
<defs>
<linearGradient id="paint0_linear_23_188" x1="11.795" y1="2.55103" x2="11.795" y2="24.3876" gradientUnits="userSpaceOnUse">
<stop stop-color="#8D90FB"/>
<stop offset="1" stop-color="#4D51C1"/>
</linearGradient>
<clipPath id="clip0_23_188">
<rect width="24" height="26.2039" fill="white" transform="translate(0 0.36731)"/>
</clipPath>
</defs>
</svg>
