<svg width="249" height="41" viewBox="0 0 249 41" fill="none" xmlns="http://www.w3.org/2000/svg">
<path d="M15.752 6.976C14.6 7.04 13.752 7.168 13.208 7.36001C12.696 7.552 12.344 7.92 12.152 8.46401C11.96 9.008 11.864 9.888 11.864 11.104V35.488C11.864 36.512 11.944 37.264 12.104 37.744C12.264 38.192 12.536 38.496 12.92 38.656C13.336 38.816 13.992 38.896 14.888 38.896H17.24C19.416 38.896 21.288 37.92 22.856 35.968C24.456 34.016 25.496 31.424 25.976 28.192H27.08C26.984 29.28 26.936 30.688 26.936 32.416C26.936 35.488 27.048 38.016 27.272 40C25.096 39.904 21.432 39.856 16.28 39.856C9.30396 39.856 4.08796 39.904 0.631958 40V39.04C1.68796 38.976 2.45596 38.848 2.93596 38.656C3.44796 38.464 3.78396 38.096 3.94396 37.552C4.13596 37.008 4.23196 36.128 4.23196 34.912V11.104C4.23196 9.888 4.13596 9.008 3.94396 8.46401C3.78396 7.92 3.44796 7.552 2.93596 7.36001C2.45596 7.168 1.68796 7.04 0.631958 6.976V6.01601C2.26396 6.112 4.79196 6.16 8.21596 6.16C11.48 6.16 13.992 6.112 15.752 6.01601V6.976Z" fill="#141414"/>
<path d="M35.8317 40.336C33.7837 40.336 32.2477 39.808 31.2237 38.752C30.2317 37.696 29.7357 36.304 29.7357 34.576C29.7357 33.136 30.1037 31.952 30.8397 31.024C31.6077 30.064 32.5197 29.328 33.5757 28.816C34.6637 28.304 36.0397 27.76 37.7037 27.184C39.4637 26.576 40.7437 26.032 41.5437 25.552C42.3757 25.04 42.7917 24.352 42.7917 23.488V19.744C42.7917 18.4 42.4717 17.36 41.8317 16.624C41.2237 15.856 40.2637 15.472 38.9517 15.472C37.4157 15.472 36.2477 15.856 35.4477 16.624C36.3437 16.944 37.0317 17.424 37.5117 18.064C38.0237 18.704 38.2797 19.456 38.2797 20.32C38.2797 21.408 37.9117 22.272 37.1757 22.912C36.4397 23.552 35.5437 23.872 34.4877 23.872C33.3677 23.872 32.5037 23.52 31.8957 22.816C31.2877 22.112 30.9837 21.232 30.9837 20.176C30.9837 19.28 31.1917 18.528 31.6077 17.92C32.0557 17.28 32.7277 16.688 33.6237 16.144C34.4877 15.632 35.5437 15.232 36.7917 14.944C38.0717 14.656 39.4637 14.512 40.9677 14.512C42.5357 14.512 43.8957 14.672 45.0477 14.992C46.1997 15.312 47.1597 15.856 47.9277 16.624C48.6317 17.328 49.0957 18.192 49.3197 19.216C49.5757 20.24 49.7037 21.632 49.7037 23.392V36.448C49.7037 37.216 49.7677 37.76 49.8957 38.08C50.0557 38.4 50.3437 38.56 50.7597 38.56C51.2397 38.56 51.8157 38.288 52.4877 37.744L52.9677 38.56C51.5277 39.744 49.7677 40.336 47.6877 40.336C45.9277 40.336 44.6957 39.984 43.9917 39.28C43.2877 38.576 42.9197 37.632 42.8877 36.448C41.2877 39.04 38.9357 40.336 35.8317 40.336ZM39.5277 37.264C40.7757 37.264 41.8637 36.608 42.7917 35.296V25.456C42.4077 26.096 41.5917 26.8 40.3437 27.568C39.0957 28.368 38.1517 29.168 37.5117 29.968C36.8717 30.768 36.5517 31.92 36.5517 33.424C36.5517 34.736 36.8237 35.712 37.3677 36.352C37.9117 36.96 38.6317 37.264 39.5277 37.264Z" fill="#141414"/>
<path d="M64.3235 35.536C64.3235 36.848 64.5475 37.76 64.9955 38.272C65.4755 38.752 66.2755 38.992 67.3955 38.992V40C64.1955 39.872 62.0675 39.808 61.0115 39.808C60.0195 39.808 57.7955 39.872 54.3395 40V38.992C55.4915 38.992 56.2915 38.752 56.7395 38.272C57.1875 37.76 57.4115 36.848 57.4115 35.536V20.416C57.4115 18.944 57.1875 17.872 56.7395 17.2C56.2915 16.528 55.4915 16.192 54.3395 16.192V15.184C55.3635 15.28 56.3555 15.328 57.3155 15.328C60.1635 15.328 62.4995 15.104 64.3235 14.656V35.536ZM65.9555 0.784004C66.5315 1.2 66.8195 1.808 66.8195 2.608C66.8195 3.28 66.5795 3.936 66.0995 4.576C65.7475 4.992 65.2995 5.424 64.7555 5.872C64.2435 6.288 63.6835 6.72001 63.0755 7.168C61.1555 8.512 59.4595 9.872 57.9875 11.248L57.4595 10.816C58.3235 9.248 59.2195 7.28001 60.1475 4.91201C60.5635 3.92 60.8835 3.184 61.1075 2.70401C61.3635 2.192 61.6675 1.728 62.0195 1.312C62.6275 0.544003 63.3795 0.160004 64.2755 0.160004C64.9475 0.160004 65.5075 0.368004 65.9555 0.784004Z" fill="#141414"/>
<path d="M78.9841 14.512C80.2001 14.512 81.3201 14.672 82.3441 14.992C83.3681 15.28 84.1521 15.616 84.6961 16C85.0161 16.224 85.3041 16.336 85.5601 16.336C85.8481 16.336 86.0881 16.192 86.2801 15.904C86.5041 15.584 86.6481 15.136 86.7121 14.56H87.7201C87.5921 16.192 87.5281 19.008 87.5281 23.008H86.5201C86.2321 20.896 85.5921 19.136 84.6001 17.728C83.6401 16.288 82.2321 15.568 80.3761 15.568C79.4161 15.568 78.6161 15.84 77.9761 16.384C77.3681 16.928 77.0641 17.68 77.0641 18.64C77.0641 19.728 77.4321 20.672 78.1681 21.472C78.9041 22.24 80.0561 23.184 81.6241 24.304L83.0161 25.312C84.9681 26.784 86.4081 28.096 87.3361 29.248C88.2641 30.4 88.7281 31.84 88.7281 33.568C88.7281 34.976 88.3121 36.224 87.4801 37.312C86.6801 38.4 85.5921 39.232 84.2161 39.808C82.8401 40.384 81.3201 40.672 79.6561 40.672C77.8961 40.672 76.3921 40.336 75.1441 39.664C74.1201 39.152 73.3841 38.816 72.9361 38.656C72.6161 38.56 72.3281 38.672 72.0721 38.992C71.8481 39.28 71.6721 39.728 71.5441 40.336H70.5361C70.6641 38.512 70.7281 35.312 70.7281 30.736H71.7361C72.3761 36.624 74.5361 39.568 78.2161 39.568C79.1441 39.568 79.9281 39.296 80.5681 38.752C81.2401 38.176 81.5761 37.312 81.5761 36.16C81.5761 35.264 81.3681 34.464 80.9521 33.76C80.5681 33.056 80.0721 32.432 79.4641 31.888C78.8561 31.344 77.9441 30.592 76.7281 29.632C75.2881 28.48 74.1841 27.552 73.4161 26.848C72.6801 26.144 72.0401 25.312 71.4961 24.352C70.9841 23.392 70.7281 22.32 70.7281 21.136C70.7281 19.088 71.5281 17.472 73.1281 16.288C74.7281 15.104 76.6801 14.512 78.9841 14.512Z" fill="#141414"/>
<path d="M115.335 5.392C116.999 5.392 118.327 5.552 119.319 5.872C120.311 6.192 121.319 6.656 122.343 7.264C122.695 7.456 122.999 7.616 123.255 7.744C123.543 7.872 123.783 7.936 123.975 7.936C124.263 7.936 124.487 7.776 124.647 7.456C124.807 7.104 124.935 6.56001 125.031 5.82401H126.135C125.975 7.968 125.895 11.616 125.895 16.768H124.791C124.663 15.04 124.263 13.392 123.591 11.824C122.951 10.256 122.023 8.992 120.807 8.03201C119.623 7.04 118.231 6.544 116.631 6.544C115.063 6.544 113.783 6.992 112.791 7.888C111.831 8.752 111.351 9.936 111.351 11.44C111.351 12.56 111.591 13.536 112.071 14.368C112.551 15.2 113.223 15.968 114.087 16.672C114.951 17.344 116.279 18.272 118.071 19.456L119.607 20.512C121.495 21.76 122.983 22.848 124.071 23.776C125.159 24.704 126.039 25.792 126.711 27.04C127.415 28.256 127.767 29.68 127.767 31.312C127.767 33.36 127.239 35.088 126.183 36.496C125.127 37.872 123.687 38.912 121.863 39.616C120.071 40.32 118.071 40.672 115.863 40.672C114.071 40.672 112.583 40.512 111.399 40.192C110.215 39.872 109.127 39.44 108.135 38.896C107.431 38.448 106.887 38.224 106.503 38.224C106.215 38.224 105.991 38.4 105.831 38.752C105.671 39.072 105.543 39.6 105.447 40.336H104.343C104.471 38.32 104.535 34 104.535 27.376H105.639C105.863 30.96 106.663 33.872 108.039 36.112C109.415 38.32 111.527 39.424 114.375 39.424C116.103 39.424 117.527 38.96 118.647 38.032C119.767 37.104 120.327 35.776 120.327 34.048C120.327 32.256 119.751 30.72 118.599 29.44C117.447 28.16 115.623 26.72 113.127 25.12C111.207 23.872 109.671 22.784 108.519 21.856C107.367 20.928 106.423 19.84 105.687 18.592C104.951 17.312 104.583 15.84 104.583 14.176C104.583 12.256 105.063 10.64 106.023 9.328C107.015 7.984 108.327 6.992 109.959 6.352C111.591 5.712 113.383 5.392 115.335 5.392Z" fill="#141414"/>
<path d="M137.222 40.336C135.174 40.336 133.638 39.808 132.614 38.752C131.622 37.696 131.126 36.304 131.126 34.576C131.126 33.136 131.494 31.952 132.23 31.024C132.998 30.064 133.91 29.328 134.966 28.816C136.054 28.304 137.43 27.76 139.094 27.184C140.854 26.576 142.134 26.032 142.934 25.552C143.766 25.04 144.182 24.352 144.182 23.488V19.744C144.182 18.4 143.862 17.36 143.222 16.624C142.614 15.856 141.654 15.472 140.342 15.472C138.806 15.472 137.638 15.856 136.838 16.624C137.734 16.944 138.422 17.424 138.902 18.064C139.414 18.704 139.67 19.456 139.67 20.32C139.67 21.408 139.302 22.272 138.566 22.912C137.83 23.552 136.934 23.872 135.878 23.872C134.758 23.872 133.894 23.52 133.286 22.816C132.678 22.112 132.374 21.232 132.374 20.176C132.374 19.28 132.582 18.528 132.998 17.92C133.446 17.28 134.118 16.688 135.014 16.144C135.878 15.632 136.934 15.232 138.182 14.944C139.462 14.656 140.854 14.512 142.358 14.512C143.926 14.512 145.286 14.672 146.438 14.992C147.59 15.312 148.55 15.856 149.318 16.624C150.022 17.328 150.486 18.192 150.71 19.216C150.966 20.24 151.094 21.632 151.094 23.392V36.448C151.094 37.216 151.158 37.76 151.286 38.08C151.446 38.4 151.734 38.56 152.15 38.56C152.63 38.56 153.206 38.288 153.878 37.744L154.358 38.56C152.918 39.744 151.158 40.336 149.078 40.336C147.318 40.336 146.086 39.984 145.382 39.28C144.678 38.576 144.31 37.632 144.278 36.448C142.678 39.04 140.326 40.336 137.222 40.336ZM140.918 37.264C142.166 37.264 143.254 36.608 144.182 35.296V25.456C143.798 26.096 142.982 26.8 141.734 27.568C140.486 28.368 139.542 29.168 138.902 29.968C138.262 30.768 137.942 31.92 137.942 33.424C137.942 34.736 138.214 35.712 138.758 36.352C139.302 36.96 140.022 37.264 140.918 37.264Z" fill="#141414"/>
<path d="M173.586 14.512C176.018 14.512 177.778 15.136 178.866 16.384C179.41 16.992 179.794 17.776 180.018 18.736C180.242 19.696 180.354 20.992 180.354 22.624V35.536C180.354 36.848 180.578 37.76 181.026 38.272C181.506 38.752 182.306 38.992 183.426 38.992V40C180.226 39.872 178.114 39.808 177.09 39.808C176.13 39.808 174.05 39.872 170.85 40V38.992C171.81 38.992 172.482 38.752 172.866 38.272C173.25 37.76 173.442 36.848 173.442 35.536V20.608C173.442 19.296 173.218 18.304 172.77 17.632C172.354 16.96 171.586 16.624 170.466 16.624C169.154 16.624 168.034 17.168 167.106 18.256C166.178 19.312 165.714 20.624 165.714 22.192V35.536C165.714 36.848 165.906 37.76 166.29 38.272C166.674 38.752 167.346 38.992 168.306 38.992V40C165.362 39.872 163.378 39.808 162.354 39.808C161.394 39.808 159.186 39.872 155.73 40V38.992C156.882 38.992 157.682 38.752 158.13 38.272C158.578 37.76 158.802 36.848 158.802 35.536V20.416C158.802 18.944 158.578 17.872 158.13 17.2C157.682 16.528 156.882 16.192 155.73 16.192V15.184C156.754 15.28 157.746 15.328 158.706 15.328C161.554 15.328 163.89 15.104 165.714 14.656V18.976C167.154 16 169.778 14.512 173.586 14.512Z" fill="#141414"/>
<path d="M194.958 15.184H200.622V16.144H194.958V35.536C194.958 36.496 195.118 37.184 195.438 37.6C195.79 37.984 196.334 38.176 197.07 38.176C198.446 38.176 199.534 37.216 200.334 35.296L201.15 35.728C199.934 39.024 197.742 40.672 194.574 40.672C192.462 40.672 190.862 40.128 189.774 39.04C189.102 38.368 188.638 37.536 188.382 36.544C188.158 35.52 188.046 34.128 188.046 32.368V16.144H184.014V15.184H188.046V8.848C190.702 8.848 193.006 8.336 194.958 7.312V15.184Z" fill="#141414"/>
<path d="M214.286 14.512C217.966 14.512 220.846 15.568 222.926 17.68C225.006 19.76 226.046 23.072 226.046 27.616C226.046 32.16 225.006 35.472 222.926 37.552C220.846 39.632 217.966 40.672 214.286 40.672C210.638 40.672 207.758 39.632 205.646 37.552C203.566 35.472 202.526 32.16 202.526 27.616C202.526 23.072 203.566 19.76 205.646 17.68C207.758 15.568 210.638 14.512 214.286 14.512ZM214.286 15.472C212.91 15.472 211.806 16.48 210.974 18.496C210.174 20.48 209.774 23.52 209.774 27.616C209.774 31.712 210.174 34.752 210.974 36.736C211.806 38.72 212.91 39.712 214.286 39.712C215.694 39.712 216.798 38.736 217.598 36.784C218.398 34.8 218.798 31.744 218.798 27.616C218.798 23.488 218.382 20.432 217.55 18.448C216.75 16.464 215.662 15.472 214.286 15.472Z" fill="#141414"/>
<path d="M238.547 14.512C239.763 14.512 240.883 14.672 241.907 14.992C242.931 15.28 243.715 15.616 244.259 16C244.579 16.224 244.867 16.336 245.123 16.336C245.411 16.336 245.651 16.192 245.843 15.904C246.067 15.584 246.211 15.136 246.275 14.56H247.283C247.155 16.192 247.091 19.008 247.091 23.008H246.083C245.795 20.896 245.155 19.136 244.163 17.728C243.203 16.288 241.795 15.568 239.939 15.568C238.979 15.568 238.179 15.84 237.539 16.384C236.931 16.928 236.627 17.68 236.627 18.64C236.627 19.728 236.995 20.672 237.731 21.472C238.467 22.24 239.619 23.184 241.187 24.304L242.579 25.312C244.531 26.784 245.971 28.096 246.899 29.248C247.827 30.4 248.291 31.84 248.291 33.568C248.291 34.976 247.875 36.224 247.043 37.312C246.243 38.4 245.155 39.232 243.779 39.808C242.403 40.384 240.883 40.672 239.219 40.672C237.459 40.672 235.955 40.336 234.707 39.664C233.683 39.152 232.947 38.816 232.499 38.656C232.179 38.56 231.891 38.672 231.635 38.992C231.411 39.28 231.235 39.728 231.107 40.336H230.099C230.227 38.512 230.291 35.312 230.291 30.736H231.299C231.939 36.624 234.099 39.568 237.779 39.568C238.707 39.568 239.491 39.296 240.131 38.752C240.803 38.176 241.139 37.312 241.139 36.16C241.139 35.264 240.931 34.464 240.515 33.76C240.131 33.056 239.635 32.432 239.027 31.888C238.419 31.344 237.507 30.592 236.291 29.632C234.851 28.48 233.747 27.552 232.979 26.848C232.243 26.144 231.603 25.312 231.059 24.352C230.547 23.392 230.291 22.32 230.291 21.136C230.291 19.088 231.091 17.472 232.691 16.288C234.291 15.104 236.243 14.512 238.547 14.512Z" fill="#141414"/>
</svg>
